# xmcd
#
# Track frame offsets:
#	182
#	18652
#	38432
#	61470
#	78782
#	94295
#	113477
#	132740
#	150947
#	172575
#	196082
#	213225
#
# Disc length: 3087 seconds
#
# Revision: 0
# Processed by: cddbd v1.5.1PL2 Copyright (c) Steve Scherf et al.
# Submitted via: EasyCDDAExtractor 9.1.0.1
#
DISCID=890c0d0c
DTITLE=Various Artist - Nº 1 CD 2
DYEAR=1900
DGENRE=
TTITLE0=Whigfield - Another Day
TTITLE1=Big Mountain - Baby, I Love Your Way
TTITLE2=Gabriel O Pensador - O Resto Do Mundo
TTITLE3=Reel 2 Real - I Like To Move It
TTITLE4=Inner Circle - Games People Play
TTITLE5=Snap - Welcome To Tomorrow
TTITLE6=C. J. Lewis - Sweets For My Sweet
TTITLE7=Jam and Spoon - Find Me
TTITLE8=Sophie B. Hawkins - Right Beside You
TTITLE9=GNR - and Vale Nunca
TTITLE10=Babyface - When Can I See You Again
TTITLE11=Despe and Siga - Festa
EXTD=
EXTT0=
EXTT1=
EXTT2=
EXTT3=
EXTT4=
EXTT5=
EXTT6=
EXTT7=
EXTT8=
EXTT9=
EXTT10=
EXTT11=
PLAYORDER=
